<svg width="40" height="40" viewBox="0 0 40 40" fill="none" xmlns="http://www.w3.org/2000/svg">
<g filter="url(#filter0_dd_56134_5364)">
<circle cx="20" cy="16" r="15" fill="white" fill-opacity="0.8"/>
<circle cx="20" cy="16" r="14.5" stroke="#E9EAEB"/>
</g>
<mask id="mask0_56134_5364" style="mask-type:luminance" maskUnits="userSpaceOnUse" x="13" y="10" width="14" height="12">
<path d="M27 10V21.6667H13V10H27Z" fill="white"/>
</mask>
<g mask="url(#mask0_56134_5364)">
<path d="M12.9999 15.8003C12.9999 15.4444 13.2829 15.1562 13.6336 15.1562H24.7742L20.7863 11.1041C20.5398 10.8523 20.5398 10.4461 20.7863 10.1944C20.9113 10.0676 21.0728 10.0051 21.2343 10.0051C21.3975 10.0051 21.5589 10.0676 21.6822 10.1944L26.7516 15.3454C26.9982 15.5971 26.9982 16.0051 26.7516 16.2551L21.6822 21.4079C21.4357 21.6596 21.0346 21.6596 20.7863 21.4079C20.5398 21.1562 20.5398 20.7482 20.7863 20.4964L24.7742 16.4444H13.6336C13.2829 16.4444 12.9999 16.1562 12.9999 15.8003Z" fill="#414651"/>
</g>
<defs>
<filter id="filter0_dd_56134_5364" x="0" y="0" width="40" height="40" filterUnits="userSpaceOnUse" color-interpolation-filters="sRGB">
<feFlood flood-opacity="0" result="BackgroundImageFix"/>
<feColorMatrix in="SourceAlpha" type="matrix" values="0 0 0 0 0 0 0 0 0 0 0 0 0 0 0 0 0 0 127 0" result="hardAlpha"/>
<feMorphology radius="1" operator="erode" in="SourceAlpha" result="effect1_dropShadow_56134_5364"/>
<feOffset dy="2"/>
<feGaussianBlur stdDeviation="2"/>
<feColorMatrix type="matrix" values="0 0 0 0 0 0 0 0 0 0 0 0 0 0 0 0 0 0 0.06 0"/>
<feBlend mode="normal" in2="BackgroundImageFix" result="effect1_dropShadow_56134_5364"/>
<feColorMatrix in="SourceAlpha" type="matrix" values="0 0 0 0 0 0 0 0 0 0 0 0 0 0 0 0 0 0 127 0" result="hardAlpha"/>
<feMorphology radius="1" operator="erode" in="SourceAlpha" result="effect2_dropShadow_56134_5364"/>
<feOffset dy="4"/>
<feGaussianBlur stdDeviation="3"/>
<feColorMatrix type="matrix" values="0 0 0 0 0 0 0 0 0 0 0 0 0 0 0 0 0 0 0.1 0"/>
<feBlend mode="normal" in2="effect1_dropShadow_56134_5364" result="effect2_dropShadow_56134_5364"/>
<feBlend mode="normal" in="SourceGraphic" in2="effect2_dropShadow_56134_5364" result="shape"/>
</filter>
</defs>
</svg>
