<svg preserveAspectRatio="none" overflow="visible" style="display: block;" width="63.672" height="67.1304" viewBox="0 0 63.672 67.1304" fill="none" xmlns="http://www.w3.org/2000/svg">
<g id="Group">
<g id="Vector">
</g>
<path id="Vector_2" d="M25.1717 7.06043C29.9051 0.713768 37.0217 -1.13957 43.5684 0.643768C50.6351 2.5671 56.8484 8.6371 58.9117 17.0904C59.0184 17.5238 59.1106 17.9571 59.1884 18.3904C56.2098 17.3291 52.97 17.2473 49.9417 18.1571C45.6517 14.9838 40.3384 14.4504 35.6151 16.1904C29.6984 18.3738 25.0784 23.9104 24.0084 30.8771C22.6417 39.7971 28.0751 47.8104 35.7584 54.6238L37.0517 55.7438C36.0084 55.8171 34.9484 55.6538 33.9351 55.4371C33.4144 55.3251 32.8965 55.2006 32.3817 55.0638L30.5917 54.5638C14.6784 50.0871 4.02506 43.0838 0.968397 32.6171C-1.4716 24.2638 0.875064 15.9004 6.03506 10.7004C10.8151 5.88377 17.9017 3.93043 25.1717 7.06043ZM30.5984 31.8871C32.0251 22.5804 42.7884 17.9938 48.3151 25.9804C48.368 26.0547 48.4481 26.105 48.538 26.1206C48.6278 26.1362 48.7202 26.1158 48.7951 26.0638C56.7184 20.4504 65.2617 28.4404 63.4184 37.6738C62.3517 43.0293 57.3851 47.4738 48.5184 51.0071L47.0684 51.5738L46.1917 51.9338C45.4351 52.2304 44.6351 52.4671 43.9117 52.3404C43.1917 52.2138 42.5217 51.7138 41.9117 51.1804L40.8784 50.2471C33.1673 43.6115 29.7406 37.4915 30.5984 31.8871Z" fill="#FF0073"/>
</g>
</svg>
